<svg xmlns="http://www.w3.org/2000/svg" viewBox="0 0 87 87"><defs><style>.cls-1{fill:#b3b3b3;}</style></defs><title>Asset 1</title><g id="Layer_2" data-name="Layer 2"><g id="Layer_7" data-name="Layer 7"><path class="cls-1" d="M43.5,0A43.5,43.5,0,1,0,87,43.5,43.51,43.51,0,0,0,43.5,0Zm1,66.36H36.9V60.2h7.59ZM44,49.57V55H37.25V48.06C44.35,43.19,50,38.44,50,31.94c0-3.52-2.34-6.1-6.81-6.1-3.84,0-6.18,1.91-6.18,4.59a9.85,9.85,0,0,0,.5,2.8l-7.11,1.06a9.14,9.14,0,0,1-.78-3.52c0-5.93,4.9-10.13,13.57-10.13,8.94,0,14.27,4.2,14.27,11.47C57.42,39.67,51.52,44.54,44,49.57Z"/></g></g></svg>