<svg id="Layer_2" data-name="Layer 2" xmlns="http://www.w3.org/2000/svg" viewBox="0 0 44.82 46.62"><defs><style>.cls-1{fill:#333;}.cls-2{fill:none;stroke:#231f20;stroke-linejoin:round;}.cls-3{fill:#fff6de;}.cls-4{fill:#fff;}.cls-5{fill:#ffd65e;}</style></defs><title>Goldrock</title><polygon class="cls-1" points="43.16 16.26 25.65 1.5 28.91 26.31 21.19 40.06 28.91 26.31 25.65 1.5 3.98 9.07 0 31.86 17.51 46.62 17.51 46.62 17.52 46.62 17.52 46.62 17.52 46.62 39.09 38.82 43.16 16.26"/><polygon class="cls-2" points="5.9 7.92 2 30.27 19.18 44.74 30.35 24.82 5.9 7.92"/><polygon class="cls-2" points="27.15 0.5 5.9 7.92 30.35 24.82 27.15 0.5"/><polygon class="cls-2" points="44.32 14.97 40.33 37.09 19.17 44.74 30.35 24.83 27.15 0.5 44.32 14.97"/><polygon class="cls-3" points="5.9 7.92 2 30.27 19.18 44.74 30.35 24.82 5.9 7.92"/><polygon class="cls-4" points="27.15 0.5 5.9 7.92 30.35 24.82 27.15 0.5"/><polygon class="cls-5" points="44.32 14.97 40.33 37.09 19.17 44.74 30.35 24.83 27.15 0.5 44.32 14.97"/></svg>