<svg xmlns="http://www.w3.org/2000/svg" viewBox="0 0 611.76 264.72"><defs><style>.cls-1{fill:#fbc8a2;}.cls-2{fill:#b4a7d3;}.cls-3{fill:#a0c6e7;}.cls-4{fill:#f5cb9f;}.cls-5{fill:#4d4d4d;}</style></defs><title>logo</title><g id="Layer_2" data-name="Layer 2"><g id="Layer_1-2" data-name="Layer 1"><path class="cls-1" d="M590.7,154.73a36.17,36.17,0,0,0-48,17.73,25.15,25.15,0,0,0-2.23,7.7l-9.8-4.51-31.61-56.07a20,20,0,0,0-27.7-5.9l-.25.16,31.82,49-50.23-23.11-.12.27a20,20,0,0,0,9.81,26.56l57.34,22.18,4,6.11a25.19,25.19,0,0,0-7.3,3.32,36.17,36.17,0,1,0,39.38,60.68c16.76-10.87,13.78-25,2.91-41.72-4.09-6.3-8.72-12.08-13.79-16.27l-1.72-3.05,6.29,2.43c4.87,4.42,11.25,8.16,18.08,11.3,18.15,8.36,32.51,9.28,40.87-8.87A36.17,36.17,0,0,0,590.7,154.73Zm-43.43,94.09c-10.24,6.64-24.15,3.38-31.07-7.29s-4.24-24.71,6-31.36,13.42,4.06,20.35,14.73S557.51,242.18,547.27,248.82Zm50-53.1c-5.1,11.09-12.79,4.08-24.34-1.24s-22.61-6.93-17.5-18S574,160.7,585.56,166,602.35,184.63,597.24,195.72Z"/><path class="cls-2" d="M2,1.2H26.35C44.17,1.2,55.77,6,55.77,24.6c0,10.94-2.08,18.15-10.83,22.31L57.08,89.77H36.85L27.12,50.08H21.54V89.77H2ZM27,38.82c8.2,0,10.6-4.59,10.6-12.47,0-7.54-2.29-12-9.73-12H21.54v24.5Z"/><path class="cls-2" d="M65.5,61.89V29c0-18.26,6.67-29,26.57-29s26.79,10.72,26.79,29V61.89c0,18.26-6.78,29.19-26.79,29.19S65.5,80.15,65.5,61.89Zm33.35,4.92V24.17c0-5.25-.66-10.39-6.78-10.39-5.79,0-6.56,5.14-6.56,10.39V66.81c0,5,.44,10.39,6.56,10.39S98.85,71.84,98.85,66.81Z"/><path class="cls-2" d="M129.58,61.56V29.63C129.58,11.26,135.92,0,156.15,0c19.57,0,25.48,10.5,25.48,25.59v7.65H162.49V24.38c0-5.14-.11-10.6-6.34-10.6s-6.78,5.57-6.78,10.93V66.37c0,6,1,10.83,6.78,10.83,6.12,0,6.34-5.47,6.34-10.83V57.08h19.14v7.65c0,15.09-5.69,26.35-25.48,26.35C135.92,91.08,129.58,79.49,129.58,61.56Z"/><path class="cls-2" d="M192.35,1.2h19.57V37.4L226.79,1.2h19.14l-16.41,40,17.17,48.55h-19.9L214,50.63l-2.08,3.5V89.77H192.35Z"/><path class="cls-3" d="M282.34,1.2h29.74c15.86,0,23.29,9.3,23.29,25.7,0,20.45-11.26,25.26-25.58,25.26h-7.88V89.77H282.34Zm26.13,37.29c7.22,0,8.53-3.83,8.53-11.92,0-6.67-.76-11.59-8.63-11.59h-6.46V38.49Z"/><path class="cls-3" d="M352.11,1.2h22.3l16.51,88.57h-18l-2.95-18.7h-13l-3.06,18.7H335.38Zm16,58.17-4.7-34.55-4.7,34.55Z"/><path class="cls-3" d="M399.89,1.2h29.75c15.85,0,23.29,9.3,23.29,25.7,0,20.45-11.27,25.26-25.59,25.26h-7.87V89.77H399.89ZM426,38.49c7.21,0,8.53-3.83,8.53-11.92,0-6.67-.77-11.59-8.64-11.59h-6.45V38.49Z"/><path class="cls-3" d="M462.33,1.2h39.8V14.54H481.91v22h15.41V50.08H481.91V76.54h20.44V89.77h-40Z"/><path class="cls-3" d="M511.21,1.2H535.6C553.42,1.2,565,6,565,24.6c0,10.94-2.08,18.15-10.83,22.31l12.14,42.86H546.09l-9.73-39.69h-5.57V89.77H511.21Zm25,37.62c8.2,0,10.61-4.59,10.61-12.47,0-7.54-2.3-12-9.73-12h-6.34v24.5Z"/><path class="cls-4" d="M0,173l16.73-2.51c.22,11.48,2.84,15.74,7.76,15.74,4.05,0,4.92-3.39,4.92-6.45,0-7.32-3.71-11.7-9.73-16.84L12,156.25C5.25,150.57.11,143.9.11,133.18c0-15,9.51-23.18,24.82-23.18,18.92,0,21.65,14.76,22,25.15l-16.84,2.08c-.22-7.88-.77-12.91-5.8-12.91-3.6,0-5.24,3.83-5.24,6.89,0,6.56,3.39,10.06,8.52,14.55l7.33,6.45c7.66,6.56,13.78,14.32,13.78,26.57,0,12.57-9.08,22.3-23.18,22.3C8.75,201.08.66,192.66,0,173Z"/><path class="cls-4" d="M57,171.56V139.63C57,121.26,63.31,110,83.54,110c19.57,0,25.48,10.5,25.48,25.59v7.65H89.88v-8.86c0-5.14-.11-10.6-6.34-10.6s-6.78,5.57-6.78,10.93v41.66c0,6,1,10.83,6.78,10.83,6.13,0,6.34-5.47,6.34-10.83v-9.29H109v7.65c0,15.09-5.69,26.35-25.48,26.35C63.31,201.08,57,189.49,57,171.56Z"/><path class="cls-4" d="M119.85,111.2h19.57v88.57H119.85Z"/><path class="cls-4" d="M150.68,173l16.73-2.51c.22,11.48,2.85,15.74,7.77,15.74,4,0,4.92-3.39,4.92-6.45,0-7.32-3.72-11.7-9.73-16.84l-7.66-6.67c-6.78-5.68-11.92-12.35-11.92-23.07,0-15,9.52-23.18,24.82-23.18,18.92,0,21.65,14.76,22,25.15l-16.84,2.08c-.22-7.88-.76-12.91-5.79-12.91-3.61,0-5.25,3.83-5.25,6.89,0,6.56,3.39,10.06,8.53,14.55l7.32,6.45c7.66,6.56,13.78,14.32,13.78,26.57,0,12.57-9.07,22.3-23.18,22.3C159.43,201.08,151.34,192.66,150.68,173Z"/><path class="cls-4" d="M205.14,173l16.73-2.51c.22,11.48,2.84,15.74,7.76,15.74,4.05,0,4.92-3.39,4.92-6.45,0-7.32-3.71-11.7-9.73-16.84l-7.65-6.67c-6.78-5.68-11.92-12.35-11.92-23.07,0-15,9.51-23.18,24.82-23.18,18.92,0,21.65,14.76,22,25.15l-16.84,2.08c-.22-7.88-.77-12.91-5.79-12.91-3.61,0-5.25,3.83-5.25,6.89,0,6.56,3.39,10.06,8.53,14.55l7.32,6.45c7.66,6.56,13.78,14.32,13.78,26.57,0,12.57-9.08,22.3-23.18,22.3C213.89,201.08,205.8,192.66,205.14,173Z"/><path class="cls-4" d="M262.11,171.89V139c0-18.26,6.67-29,26.57-29s26.79,10.72,26.79,29v32.91c0,18.26-6.78,29.19-26.79,29.19S262.11,190.15,262.11,171.89Zm33.35,4.92V134.17c0-5.25-.65-10.39-6.78-10.39-5.79,0-6.56,5.14-6.56,10.39v42.64c0,5,.44,10.39,6.56,10.39S295.46,181.84,295.46,176.81Z"/><path class="cls-4" d="M327.39,111.2h24.39c17.82,0,29.41,4.81,29.41,23.4,0,10.94-2.08,18.15-10.82,22.31l12.13,42.86H362.28l-9.74-39.69H347v39.69H327.39Zm25,37.62c8.21,0,10.61-4.59,10.61-12.47,0-7.54-2.29-12-9.73-12H347v24.5Z"/><path class="cls-4" d="M390.6,173l16.73-2.51c.22,11.48,2.84,15.74,7.76,15.74,4.05,0,4.92-3.39,4.92-6.45,0-7.32-3.72-11.7-9.73-16.84l-7.65-6.67c-6.78-5.68-11.92-12.35-11.92-23.07,0-15,9.51-23.18,24.82-23.18,18.92,0,21.65,14.76,22,25.15l-16.84,2.08c-.22-7.88-.77-12.91-5.8-12.91-3.61,0-5.25,3.83-5.25,6.89,0,6.56,3.39,10.06,8.53,14.55l7.33,6.45c7.65,6.56,13.78,14.32,13.78,26.57,0,12.57-9.08,22.3-23.18,22.3C399.35,201.08,391.25,192.66,390.6,173Z"/><path class="cls-5" d="M25.92,223.23V229h-9v24.12H10.21V229h-9v-5.72Z"/><path class="cls-5" d="M48.88,223.23h6.71v29.84H48.88V240.41H37.59v12.66H30.88V223.23h6.71v11.41H48.88Z"/><path class="cls-5" d="M63.13,253.07V223.23H83.28v5.64H69.85v5.85H81.77v5.51H69.85v7.2H84.27v5.64Z"/><path class="cls-5" d="M114.46,253.67q-7.29,0-11.09-4t-3.81-11.49a17.55,17.55,0,0,1,1.16-6.61,14.1,14.1,0,0,1,3.19-4.91,13.16,13.16,0,0,1,4.82-3,17.35,17.35,0,0,1,6.07-1,19.08,19.08,0,0,1,3.44.28,22,22,0,0,1,2.72.64,14.32,14.32,0,0,1,1.94.76c.51.25.88.46,1.11.6l-1.93,5.43a15.92,15.92,0,0,0-3.21-1.25,15.12,15.12,0,0,0-4.16-.52,9,9,0,0,0-3,.52,6.81,6.81,0,0,0-2.63,1.65,8.42,8.42,0,0,0-1.83,2.95,12.39,12.39,0,0,0-.69,4.4,15.75,15.75,0,0,0,.45,3.85,8.24,8.24,0,0,0,1.47,3.08,6.91,6.91,0,0,0,2.65,2,9.29,9.29,0,0,0,4,.76,18.69,18.69,0,0,0,2.62-.17c.78-.12,1.47-.26,2.07-.41a10.89,10.89,0,0,0,1.59-.54l1.25-.56,1.86,5.38a15.67,15.67,0,0,1-4,1.55A23.29,23.29,0,0,1,114.46,253.67Z"/><path class="cls-5" d="M150.62,253.07c-.33-1-.69-2.11-1.07-3.2l-1.14-3.26H136.75c-.37,1.09-.75,2.18-1.13,3.27s-.73,2.16-1.06,3.19h-7q1.68-4.83,3.2-8.92c1-2.72,2-5.29,3-7.7s1.92-4.7,2.85-6.87,1.91-4.29,2.92-6.35h6.37c1,2.06,1.94,4.18,2.9,6.35s1.91,4.45,2.87,6.87,2,5,3,7.7,2.07,5.7,3.2,8.92ZM142.55,230q-.23.64-.66,1.77l-1,2.58c-.37,1-.78,2.06-1.24,3.23s-.92,2.41-1.39,3.7h8.54c-.46-1.3-.9-2.53-1.33-3.71s-.83-2.26-1.22-3.24-.72-1.84-1-2.58S142.73,230.41,142.55,230Z"/><path class="cls-5" d="M171,222.88c4.47,0,7.91.8,10.29,2.39s3.57,4.07,3.57,7.43a8.4,8.4,0,0,1-1.44,5.1,9.5,9.5,0,0,1-4.16,3.08c.61.75,1.24,1.6,1.9,2.56s1.31,2,2,3,1.27,2.14,1.87,3.27,1.16,2.25,1.68,3.34H179.2l-1.66-3c-.57-1-1.14-2-1.73-2.93s-1.18-1.85-1.75-2.69-1.16-1.62-1.73-2.31H169v10.9H162.3V223.66a38.22,38.22,0,0,1,4.54-.61C168.4,222.94,169.8,222.88,171,222.88Zm.38,5.73c-.48,0-.92,0-1.31,0l-1.1.09v8.09h1.9a11.47,11.47,0,0,0,5.42-.94,3.44,3.44,0,0,0,1.64-3.23,3.29,3.29,0,0,0-1.66-3.13A10.33,10.33,0,0,0,171.42,228.61Z"/><path class="cls-5" d="M217.8,238.13a17.36,17.36,0,0,1-1.21,6.76,12.54,12.54,0,0,1-3.42,4.78,14.65,14.65,0,0,1-5.4,2.84,25.17,25.17,0,0,1-7.15.94c-1.21,0-2.61,0-4.22-.15a33.76,33.76,0,0,1-4.74-.62V223.61a41,41,0,0,1,4.85-.58q2.52-.15,4.32-.15a26.32,26.32,0,0,1,7,.86,14.23,14.23,0,0,1,5.36,2.72,12,12,0,0,1,3.44,4.73A17.88,17.88,0,0,1,217.8,238.13Zm-19.42,9.47c.31,0,.68.05,1.1.06s.91,0,1.48,0c3.36,0,5.85-.84,7.47-2.54a9.72,9.72,0,0,0,2.44-7q0-4.69-2.33-7.11t-7.36-2.41l-1.42,0c-.49,0-.95.05-1.38.11Z"/><path class="cls-5" d="M249.58,228.39q-4.7,0-6.79,2.61a11.11,11.11,0,0,0-2.08,7.13,14.49,14.49,0,0,0,.51,4,8.84,8.84,0,0,0,1.55,3.08,6.93,6.93,0,0,0,2.59,2,8.64,8.64,0,0,0,3.61.71c.75,0,1.39,0,1.92,0a8.71,8.71,0,0,0,1.4-.18V237.31H259v14.77a26.52,26.52,0,0,1-3.88,1,33.89,33.89,0,0,1-6.59.54,17.06,17.06,0,0,1-6.09-1,12.75,12.75,0,0,1-4.67-3,13.39,13.39,0,0,1-3-4.87,18.92,18.92,0,0,1-1.06-6.58,17.8,17.8,0,0,1,1.16-6.64,14.31,14.31,0,0,1,3.19-4.88,13.34,13.34,0,0,1,4.76-3,16.33,16.33,0,0,1,5.83-1,23.14,23.14,0,0,1,3.81.28,23.52,23.52,0,0,1,2.93.64,14.47,14.47,0,0,1,2,.76,12.62,12.62,0,0,1,1.14.6l-1.94,5.38a17.3,17.3,0,0,0-3.17-1.27A13.4,13.4,0,0,0,249.58,228.39Z"/><path class="cls-5" d="M285.92,253.07c-.34-1-.69-2.11-1.07-3.2s-.77-2.18-1.15-3.26H272.05c-.38,1.09-.76,2.18-1.13,3.27s-.74,2.16-1.06,3.19h-7q1.69-4.83,3.2-8.92c1-2.72,2-5.29,3-7.7s1.91-4.7,2.85-6.87,1.91-4.29,2.91-6.35h6.37q1.47,3.09,2.9,6.35c.95,2.17,1.91,4.45,2.88,6.87s1.95,5,3,7.7,2.08,5.7,3.2,8.92ZM277.85,230q-.23.64-.66,1.77t-1,2.58c-.37,1-.78,2.06-1.23,3.23s-.92,2.41-1.39,3.7h8.53c-.46-1.3-.9-2.53-1.33-3.71s-.83-2.26-1.22-3.24l-1-2.58C278.26,231,278,230.41,277.85,230Z"/><path class="cls-5" d="M305.51,223.23c.52.94,1.12,2.11,1.79,3.51s1.39,2.9,2.12,4.52,1.46,3.28,2.18,5l2,4.78,2-4.78c.72-1.69,1.44-3.35,2.18-5s1.44-3.13,2.11-4.52,1.28-2.57,1.8-3.51h6.11c.29,2,.55,4.19.8,6.65s.46,5,.64,7.66.36,5.32.52,8,.29,5.18.41,7.54h-6.55c-.08-2.9-.2-6.06-.34-9.48s-.36-6.86-.65-10.33l-1.72,4c-.64,1.47-1.26,2.93-1.88,4.4s-1.22,2.86-1.8,4.19-1.06,2.48-1.46,3.43h-4.7c-.4-.95-.89-2.09-1.47-3.43l-1.79-4.19c-.62-1.47-1.24-2.93-1.88-4.4l-1.73-4c-.28,3.47-.5,6.92-.64,10.33s-.26,6.58-.35,9.48h-6.54q.16-3.54.41-7.54c.15-2.67.33-5.33.51-8s.41-5.21.65-7.66.51-4.67.8-6.65Z"/><path class="cls-5" d="M336.86,253.07V223.23H357v5.64H343.58v5.85H355.5v5.51H343.58v7.2H358v5.64Z"/></g></g></svg>