<svg xmlns="http://www.w3.org/2000/svg" viewBox="0 0 90 139"><defs><style>.cls-1{fill:#f2f2f2;}.cls-2,.cls-5,.cls-8{fill:none;}.cls-2{stroke:#3b5163;stroke-width:0.75px;}.cls-2,.cls-8{stroke-miterlimit:10;}.cls-3{opacity:0.9;}.cls-4{fill:#333;}.cls-5{stroke:#3a4a58;stroke-linecap:round;stroke-linejoin:round;}.cls-6{fill:#cfe1f2;}.cls-7{fill:#7d92a5;}.cls-8{stroke:#4a687c;stroke-width:2px;}</style></defs><title>paper</title><g id="Layer_3" data-name="Layer 3"><rect class="cls-1" x="2" y="2.5" width="86" height="134" rx="11.03"/><rect class="cls-2" x="2" y="2.5" width="86" height="134" rx="11.03"/></g><g id="Layer_2" data-name="Layer 2"><g class="cls-3"><path class="cls-4" d="M60.85,47.56,21.7,47.43l2.11,19.08L63.86,74.8Zm-8.94,5.1a2.11,2.11,0,0,1-2.09-1.79,1.61,1.61,0,0,1,1.7-1.77,2.13,2.13,0,0,1,2.1,1.79A1.62,1.62,0,0,1,51.91,52.66Zm5.21,0A2.12,2.12,0,0,1,55,50.89a1.61,1.61,0,0,1,1.7-1.77,2.13,2.13,0,0,1,2.1,1.78A1.62,1.62,0,0,1,57.12,52.68Z"/><path class="cls-4" d="M34.37,89.44a11.74,11.74,0,0,1-5.2.12,5.13,5.13,0,0,1-2-1.33A4.23,4.23,0,0,1,26,86.06a12,12,0,0,0,2.9,6,14.41,14.41,0,0,0,5.92,3.83A16.43,16.43,0,0,0,41,97h0C33,96.69,33.69,89.57,34.37,89.44Z"/><path class="cls-4" d="M63.86,74.8l-40-8.29,2,18.41A5,5,0,0,0,26,86.06a4.23,4.23,0,0,0,1.21,2.17,5.13,5.13,0,0,0,2,1.33,11.74,11.74,0,0,0,5.2-.12c-.68.13-1.4,7.25,6.6,7.52h.43l24.92.08Z"/></g><path class="cls-5" d="M23.61,42l2.17,20.42,40.08,8.73L62.76,42Zm30.23,5.49a2.18,2.18,0,0,1-2.11-1.9,1.68,1.68,0,0,1,1.7-1.9,2.17,2.17,0,0,1,2.11,1.9A1.68,1.68,0,0,1,53.84,47.51Zm5.21,0a2.16,2.16,0,0,1-2.1-1.9,1.67,1.67,0,0,1,1.69-1.9,2.17,2.17,0,0,1,2.11,1.9A1.68,1.68,0,0,1,59.05,47.51Z"/><path class="cls-5" d="M36.41,87a10.92,10.92,0,0,1-5.19.14,5.09,5.09,0,0,1-2-1.41A4.61,4.61,0,0,1,28,83.36a13.16,13.16,0,0,0,2.92,6.4,14.3,14.3,0,0,0,5.93,4.09A15.36,15.36,0,0,0,43,95h0C35,94.71,35.74,87.09,36.41,87Z"/><path class="cls-5" d="M25.78,62.44l2.09,19.7A7.41,7.41,0,0,0,28,83.36a4.61,4.61,0,0,0,1.22,2.32,5.09,5.09,0,0,0,2,1.41A10.92,10.92,0,0,0,36.41,87c-.67.14-1.37,7.76,6.64,8H68.39l-2.53-23.8Z"/><path class="cls-6" d="M23.61,42l2.17,20.42,40.08,8.73L62.76,42Zm30.23,5.49a2.18,2.18,0,0,1-2.11-1.9,1.68,1.68,0,0,1,1.7-1.9,2.17,2.17,0,0,1,2.11,1.9A1.68,1.68,0,0,1,53.84,47.51Zm5.21,0a2.16,2.16,0,0,1-2.1-1.9,1.67,1.67,0,0,1,1.69-1.9,2.17,2.17,0,0,1,2.11,1.9A1.68,1.68,0,0,1,59.05,47.51Z"/><path class="cls-6" d="M36.41,87a10.92,10.92,0,0,1-5.19.14,5.09,5.09,0,0,1-2-1.41A4.61,4.61,0,0,1,28,83.36a13.16,13.16,0,0,0,2.92,6.4,14.3,14.3,0,0,0,5.93,4.09A15.36,15.36,0,0,0,43,95h0C35,94.71,35.74,87.09,36.41,87Z"/><path class="cls-7" d="M25.78,62.44l2.09,19.7A7.41,7.41,0,0,0,28,83.36a4.61,4.61,0,0,0,1.22,2.32,5.09,5.09,0,0,0,2,1.41A10.92,10.92,0,0,0,36.41,87c-.67.14-1.37,7.76,6.64,8H68.39l-2.53-23.8Z"/></g><g id="Layer_4" data-name="Layer 4"><rect class="cls-8" x="2" y="2.5" width="86" height="134" rx="11.03"/></g></svg>