<?xml version="1.0" encoding="utf-8"?>
<!-- Generator: Adobe Illustrator 23.0.1, SVG Export Plug-In . SVG Version: 6.00 Build 0)  -->
<svg version="1.1" xmlns="http://www.w3.org/2000/svg" xmlns:xlink="http://www.w3.org/1999/xlink" x="0px" y="0px"
	 viewBox="0 0 90 139" style="enable-background:new 0 0 90 139;" xml:space="preserve">
<style type="text/css">
	.st0{opacity:0.84;clip-path:url(#SVGID_6_);}
	.st1{fill:#BDD4E5;}
	.st2{opacity:0.9;}
	.st3{fill:#333333;}
	.st4{fill:none;stroke:#333333;stroke-linecap:round;stroke-linejoin:round;}
	.st5{fill:#F2F2F2;}
	.st6{fill:#CCCCCC;}
</style>
<g id="Layer_3">
	<g>
		<defs>
			<path id="SVGID_1_" d="M76.97,136.5H13.03C6.94,136.5,2,131.56,2,125.47V13.53C2,7.44,6.94,2.5,13.03,2.5h63.94
				C83.06,2.5,88,7.44,88,13.53v111.94C88,131.56,83.06,136.5,76.97,136.5z"/>
		</defs>
		<use xlink:href="#SVGID_1_"  style="overflow:visible;fill:#A0C5E7;"/>
		<clipPath id="SVGID_2_">
			<use xlink:href="#SVGID_1_"  style="overflow:visible;"/>
		</clipPath>
		<use xlink:href="#SVGID_1_"  style="overflow:visible;fill:none;stroke:#3B5163;stroke-width:3;stroke-miterlimit:10;"/>
	</g>
</g>
<g id="Layer_1">
	<g>
		<defs>
			<path id="SVGID_3_" d="M80.3,134.5H9.7c-5.36,0-9.7-4.34-9.7-9.7V10.2c0-5.36,4.34-9.7,9.7-9.7H80.3c5.36,0,9.7,4.34,9.7,9.7
				V124.8C90,130.16,85.66,134.5,80.3,134.5z"/>
		</defs>
		<clipPath id="SVGID_4_">
			<use xlink:href="#SVGID_3_"  style="overflow:visible;"/>
		</clipPath>
	</g>
	<g>
		<defs>
			<path id="SVGID_5_" d="M80.3,138.5H9.7c-5.36,0-9.7-4.34-9.7-9.7V10.2c0-5.36,4.34-9.7,9.7-9.7H80.3c5.36,0,9.7,4.34,9.7,9.7
				V128.8C90,134.16,85.66,138.5,80.3,138.5z"/>
		</defs>
		<clipPath id="SVGID_6_">
			<use xlink:href="#SVGID_5_"  style="overflow:visible;"/>
		</clipPath>
		<g class="st0">
			<path class="st1" d="M-66.19,22.21c-1.1,0.39-2.35,0.32-3.48-0.3c-2.37-1.32-3.68-3.93-3.5-6.98
				c0.53-9.06,15.46-23.89,36.84-31.53c5.64-2.02,13.67-3.09,22.16-4.23c8.59-1.15,17.47-2.34,24.78-4.56
				c22.34-6.78,38.67-27.99,45.93-59.76l0.05-0.23c0.6-2.61,3.05-4.17,5.46-3.48c2.42,0.69,3.89,3.37,3.3,5.99l-0.05,0.23
				c-8.07,35.28-26.6,58.96-52.14,66.69c-7.95,2.41-17.17,3.64-26.09,4.84c-8.05,1.08-15.65,2.1-20.47,3.82
				c-19.78,7.07-28.9,18.39-30.52,22.2c0.87,1.42,1.03,3.28,0.29,4.9C-64.17,21-65.11,21.83-66.19,22.21z"/>
			<path class="st1" d="M-57.53,55.41c-1.19,0.43-2.55,0.35-3.77-0.33c-2.76-1.53-4.23-4.77-3.93-8.65
				c0.66-8.64,11.09-25.26,36.24-33.07c5.3-1.65,12.47-2.79,20.06-4c8.7-1.39,17.7-2.82,25.45-5.17
				C53.33-6.94,63.7-48.03,64.77-52.68c0.65-2.83,3.3-4.52,5.92-3.77c2.62,0.75,4.22,3.65,3.57,6.49
				c-1.2,5.25-12.98,51.64-54.98,64.37c-8.33,2.52-18.06,4.07-26.64,5.44c-7.26,1.16-14.12,2.25-18.8,3.71
				c-20.92,6.52-28.56,19.35-29.28,23.39c1.25,1.59,1.59,3.89,0.69,5.85C-55.34,54.09-56.36,54.99-57.53,55.41z"/>
			<path class="st1" d="M-48.87,88.6c-1.29,0.46-2.74,0.38-4.06-0.35c-3.26-1.81-4.92-5.97-4.44-11.13
				C-56.5,67.9-48,50.4-21.62,43.31c4.71-1.27,10.72-2.38,17.08-3.56c8.66-1.6,18.47-3.42,26.96-5.99
				c34.08-10.3,48.52-45.01,50.52-53.74c0.7-3.05,3.55-4.87,6.38-4.06c2.82,0.81,4.54,3.93,3.84,6.98
				c-2.74,11.97-18.48,47.88-54.2,60.65c-1.17,0.42-2.35,0.81-3.56,1.18c-9.01,2.73-19.1,4.6-28.01,6.25
				c-6.17,1.14-11.99,2.22-16.33,3.39c-16.49,4.44-23.29,13.14-25.87,17.93c-1.8,3.33-2.12,5.75-2.11,6.8
				c1.6,1.71,2.09,4.39,1.05,6.65C-46.51,87.18-47.61,88.15-48.87,88.6z"/>
			<path class="st1" d="M-40.2,121.79c-1.38,0.49-2.94,0.41-4.35-0.38c-3.87-2.15-5.81-7.74-5.07-14.59
				c1.38-12.6,11.4-28.03,35.38-33.56c3.23-0.75,7-1.53,10.99-2.37c9.91-2.07,21.15-4.41,31.58-7.57
				C64.42,52.4,79.79,18.5,81.12,12.72c0.75-3.27,3.81-5.22,6.83-4.35c3.02,0.87,4.87,4.22,4.12,7.48
				C89.38,27.6,70.02,63.49,31.52,75.13c-10.87,3.29-22.84,5.79-32.47,7.8c-3.94,0.82-7.65,1.6-10.78,2.32
				c-16.56,3.82-22.77,12.49-24.99,17.31c-1.91,4.16-1.92,7.55-1.66,8.83c1.92,1.81,2.56,4.85,1.38,7.39
				C-37.68,120.27-38.85,121.31-40.2,121.79z M-39.54,110.53C-39.54,110.53-39.54,110.53-39.54,110.53
				C-39.54,110.53-39.54,110.53-39.54,110.53z"/>
			<path class="st1" d="M-31.54,154.98c-1.47,0.53-3.13,0.43-4.64-0.4c-5.3-2.94-6.77-11.56-5.88-18.79
				c0.98-7.92,6.38-26.94,35.21-32.56c12.29-2.4,27.65-6.26,41.08-10.32c35.08-10.6,53.51-40.74,55.05-47.48
				c0.8-3.49,4.06-5.57,7.29-4.64c3.23,0.92,5.19,4.5,4.39,7.98C98.36,60.17,77.89,91.22,42.16,104c-1.48,0.53-2.98,1.03-4.51,1.49
				c-13.77,4.17-29.54,8.13-42.17,10.59c-15.71,3.06-21.84,10.61-24.22,16.41c-2.15,5.24-1.58,9.75-1.03,11.23
				c2.18,1.91,2.94,5.26,1.66,8.05C-28.85,153.36-30.1,154.47-31.54,154.98z M-30.84,142.97
				C-30.83,142.97-30.83,142.98-30.84,142.97C-30.83,142.98-30.83,142.97-30.84,142.97z"/>
		</g>
		<g class="st0">
			<path class="st1" d="M-34.48,172.7c-1.32,0.55-2.82,0.65-4.16,0.17c-2.82-1.03-4.35-3.52-4.09-6.67
				c0.77-9.36,18.84-26.6,44.52-37.35c6.78-2.84,16.39-5.04,26.57-7.37c10.29-2.36,20.93-4.79,29.71-8.06
				c26.82-10,46.66-33.97,55.82-67.53l0.07-0.25c0.76-2.76,3.71-4.69,6.59-4.32c2.88,0.38,4.61,2.92,3.86,5.68l-0.07,0.24
				c-10.17,37.26-32.67,64.07-63.34,75.48c-9.55,3.55-20.59,6.08-31.27,8.53c-9.65,2.21-18.76,4.29-24.54,6.71
				c-23.76,9.95-34.83,22.8-36.83,26.92c1.01,1.34,1.19,3.23,0.27,4.98C-32.05,171.18-33.18,172.16-34.48,172.7z"/>
			<path class="st1" d="M0.5,174.03c-0.97,0.28-2.06,0.14-3.01-0.48c-2.15-1.41-3.19-4.14-2.8-7.3c0.89-7.02,9.92-20.02,30.41-24.96
				c4.32-1.04,10.11-1.57,16.25-2.12c7.04-0.64,14.31-1.29,20.61-2.76c29.97-6.98,39.97-39.99,41.01-43.73
				c0.64-2.28,2.83-3.51,4.9-2.74c2.07,0.76,3.23,3.23,2.6,5.51c-1.18,4.22-12.52,41.48-46.71,49.48
				c-6.78,1.58-14.64,2.29-21.58,2.92c-5.87,0.53-11.41,1.03-15.22,1.95c-17.04,4.13-23.69,14.18-24.43,17.45
				c0.94,1.37,1.12,3.27,0.31,4.82C2.31,173.08,1.45,173.75,0.5,174.03z"/>
			<path class="st1" d="M1.25,224.42c-1.29,0.46-2.74,0.38-4.06-0.35c-3.26-1.81-4.92-5.97-4.44-11.13
				c0.86-9.22,9.36-26.72,35.74-33.81c4.71-1.27,10.72-2.38,17.08-3.56c8.66-1.6,18.47-3.42,26.96-5.99
				c34.08-10.3,48.52-45.01,50.52-53.74c0.7-3.05,3.55-4.87,6.38-4.06c2.82,0.81,4.54,3.93,3.84,6.98
				c-2.74,11.97-18.48,47.88-54.2,60.65c-1.17,0.42-2.35,0.81-3.56,1.18c-9.01,2.73-19.1,4.6-28.01,6.25
				c-6.17,1.14-11.99,2.22-16.33,3.39c-16.49,4.44-23.29,13.14-25.87,17.93c-1.8,3.33-2.12,5.75-2.11,6.8
				c1.6,1.71,2.09,4.39,1.05,6.65C3.6,223,2.51,223.97,1.25,224.42z"/>
		</g>
	</g>
</g>
<g id="Layer_2">
	<g class="st2">
		<path class="st3" d="M60.85,47.56L21.7,47.43l2.11,19.09l40.05,8.29L60.85,47.56z M51.91,52.66c-1.05,0-1.99-0.8-2.1-1.78
			c-0.11-0.98,0.65-1.77,1.71-1.77s1.99,0.8,2.1,1.78C53.73,51.87,52.96,52.66,51.91,52.66z M57.12,52.68c-1.05,0-1.99-0.8-2.1-1.78
			c-0.11-0.98,0.65-1.77,1.7-1.77c1.05,0,1.99,0.8,2.1,1.78C58.94,51.89,58.17,52.68,57.12,52.68z"/>
		<path class="st3" d="M34.37,89.44c-2.76,0.52-3.76,0.38-5.2,0.11c-0.83-0.18-1.72-1.09-1.98-1.32c-0.72-0.65-1.05-1.5-1.21-2.17
			c0.24,1.42,0.91,3.77,2.9,5.99c2.12,2.36,4.61,3.34,5.91,3.84c2.62,0.99,4.88,1.1,6.17,1.07c0,0,0,0,0.01-0.01
			C32.97,96.69,33.69,89.57,34.37,89.44z"/>
		<path class="st3" d="M63.86,74.8l-40.05-8.29l2.03,18.41c0,0.01-0.01,0.5,0.14,1.14c0.16,0.67,0.49,1.52,1.21,2.17
			c0.25,0.23,1.15,1.15,1.98,1.32c1.44,0.27,2.44,0.4,5.2-0.11c-0.68,0.13-1.4,7.25,6.61,7.52c0.14,0,0.28,0.01,0.42,0.01
			l24.92,0.08L63.86,74.8z"/>
	</g>
	<g>
		<g>
			<path class="st4" d="M23.61,42.02l2.17,20.42l40.08,8.73l-3.1-29.15H23.61z M53.84,47.51c-1.05,0-1.99-0.85-2.1-1.9
				c-0.11-1.05,0.65-1.9,1.7-1.9c1.05,0,1.99,0.85,2.1,1.9C55.65,46.66,54.89,47.51,53.84,47.51z M59.05,47.51
				c-1.05,0-1.99-0.85-2.1-1.9c-0.11-1.05,0.65-1.9,1.7-1.9s1.99,0.85,2.1,1.9C60.86,46.66,60.1,47.51,59.05,47.51z"/>
			<g>
				<path class="st4" d="M36.41,86.95c-2.76,0.56-3.76,0.42-5.2,0.14c-0.83-0.19-1.73-1.16-1.98-1.41c-0.72-0.7-1.06-1.6-1.22-2.32
					c0.24,1.51,0.92,4.03,2.92,6.4c2.12,2.52,4.62,3.56,5.93,4.08c2.62,1.05,4.88,1.16,6.18,1.13c0,0,0,0,0.01-0.01
					C35.04,94.71,35.74,87.09,36.41,86.95z"/>
				<path class="st4" d="M25.78,62.44l2.09,19.7c0,0.01-0.01,0.53,0.15,1.22c0.16,0.72,0.5,1.62,1.22,2.32
					c0.25,0.25,1.15,1.22,1.98,1.41c1.44,0.28,2.44,0.42,5.2-0.14c-0.68,0.14-1.37,7.76,6.63,8.02c0.14,0,0.28,0.01,0.42,0.01
					l24.92,0l-2.53-23.8L25.78,62.44z"/>
			</g>
		</g>
		<g>
			<path class="st5" d="M23.61,42.02l2.17,20.42l40.08,8.73l-3.1-29.15H23.61z M53.84,47.51c-1.05,0-1.99-0.85-2.1-1.9
				c-0.11-1.05,0.65-1.9,1.7-1.9c1.05,0,1.99,0.85,2.1,1.9C55.65,46.66,54.89,47.51,53.84,47.51z M59.05,47.51
				c-1.05,0-1.99-0.85-2.1-1.9c-0.11-1.05,0.65-1.9,1.7-1.9s1.99,0.85,2.1,1.9C60.86,46.66,60.1,47.51,59.05,47.51z"/>
			<g>
				<path class="st5" d="M36.41,86.95c-2.76,0.56-3.76,0.42-5.2,0.14c-0.83-0.19-1.73-1.16-1.98-1.41c-0.72-0.7-1.06-1.6-1.22-2.32
					c0.24,1.51,0.92,4.03,2.92,6.4c2.12,2.52,4.62,3.56,5.93,4.08c2.62,1.05,4.88,1.16,6.18,1.13c0,0,0,0,0.01-0.01
					C35.04,94.71,35.74,87.09,36.41,86.95z"/>
				<path class="st6" d="M25.78,62.44l2.09,19.7c0,0.01-0.01,0.53,0.15,1.22c0.16,0.72,0.5,1.62,1.22,2.32
					c0.25,0.25,1.15,1.22,1.98,1.41c1.44,0.28,2.44,0.42,5.2-0.14c-0.68,0.14-1.37,7.76,6.63,8.02c0.14,0,0.28,0.01,0.42,0.01
					l24.92,0l-2.53-23.8L25.78,62.44z"/>
			</g>
		</g>
	</g>
</g>
<g id="Layer_4">
	<g>
		<defs>
			<path id="SVGID_7_" d="M76.97,136.5H13.03C6.94,136.5,2,131.56,2,125.47V13.53C2,7.44,6.94,2.5,13.03,2.5h63.94
				C83.06,2.5,88,7.44,88,13.53v111.94C88,131.56,83.06,136.5,76.97,136.5z"/>
		</defs>
		<clipPath id="SVGID_8_">
			<use xlink:href="#SVGID_7_"  style="overflow:visible;"/>
		</clipPath>
		<use xlink:href="#SVGID_7_"  style="overflow:visible;fill:none;stroke:#4A687C;stroke-width:3;stroke-miterlimit:10;"/>
	</g>
</g>
</svg>
