<svg xmlns="http://www.w3.org/2000/svg" xmlns:xlink="http://www.w3.org/1999/xlink" viewBox="0 0 90 139"><defs><style>.cls-1,.cls-12,.cls-3,.cls-9{fill:none;}.cls-2{fill:#ffd65e;}.cls-3{stroke:#3b5163;}.cls-12,.cls-3{stroke-miterlimit:10;stroke-width:3px;}.cls-4{clip-path:url(#clip-path);}.cls-5{opacity:0.84;}.cls-6{fill:#fff6de;}.cls-7{opacity:0.9;}.cls-8{fill:#333;}.cls-9{stroke:#333;stroke-linecap:round;stroke-linejoin:round;}.cls-10{fill:#f2f2f2;}.cls-11{fill:#ccc;}.cls-12{stroke:url(#Summer);}</style><clipPath id="clip-path"><rect class="cls-1" y="0.5" width="90" height="138" rx="9.7"/></clipPath><radialGradient id="Summer" cx="45" cy="69.5" r="57.76" gradientUnits="userSpaceOnUse"><stop offset="0" stop-color="#fff"/><stop offset="0.09" stop-color="#ffedd8"/><stop offset="0.21" stop-color="#ffd5a7"/><stop offset="0.33" stop-color="#ffc17d"/><stop offset="0.46" stop-color="#ffb05b"/><stop offset="0.59" stop-color="#ffa340"/><stop offset="0.72" stop-color="#ff9a2d"/><stop offset="0.86" stop-color="#ff9522"/><stop offset="1" stop-color="#ff931e"/></radialGradient></defs><title>paper_g</title><g id="Layer_3" data-name="Layer 3"><rect class="cls-2" x="2" y="2.5" width="86" height="134" rx="11.03"/><rect class="cls-3" x="2" y="2.5" width="86" height="134" rx="11.03"/></g><g id="Layer_1" data-name="Layer 1"><g class="cls-4"><g class="cls-5"><path class="cls-6" d="M-66.19,22.21a4.16,4.16,0,0,1-3.48-.3,7.22,7.22,0,0,1-3.5-7C-72.64,5.87-57.71-9-36.34-16.6c5.64-2,13.67-3.09,22.16-4.23s17.47-2.35,24.79-4.56c22.33-6.78,38.66-28,45.93-59.76l.05-.23a4.43,4.43,0,0,1,5.47-3.48,5,5,0,0,1,3.29,6l0,.23c-8.07,35.27-26.59,59-52.14,66.69C5.2-13.54-4-12.31-12.93-11.11-21-10-28.58-9-33.39-7.29-53.17-.22-62.29,11.1-63.91,14.91a5.29,5.29,0,0,1,.29,4.9A4.5,4.5,0,0,1-66.19,22.21Z"/><path class="cls-6" d="M-57.53,55.41a4.57,4.57,0,0,1-3.77-.33c-2.76-1.53-4.23-4.77-3.93-8.65.67-8.64,11.09-25.27,36.24-33.08,5.3-1.64,12.47-2.79,20.06-4C-.23,8,8.77,6.53,16.52,4.18,53.33-6.94,63.7-48,64.77-52.68a4.79,4.79,0,0,1,5.92-3.77A5.44,5.44,0,0,1,74.26-50c-1.2,5.25-13,51.64-55,64.38C11,16.93,1.22,18.48-7.36,19.85c-7.26,1.16-14.11,2.25-18.8,3.71C-47.08,30.08-54.71,42.91-55.43,47a5.69,5.69,0,0,1,.68,5.85A4.89,4.89,0,0,1-57.53,55.41Z"/><path class="cls-6" d="M-48.87,88.6a4.88,4.88,0,0,1-4.05-.35c-3.27-1.81-4.92-6-4.44-11.13C-56.5,67.9-48,50.4-21.62,43.31-16.91,42-10.9,40.93-4.54,39.75c8.66-1.6,18.47-3.42,27-6,34.09-10.3,48.52-45,50.52-53.74A5.16,5.16,0,0,1,79.32-24a5.86,5.86,0,0,1,3.84,7C80.42-5.09,64.68,30.82,29,43.59c-1.17.42-2.36.81-3.57,1.18-9,2.72-19.1,4.59-28,6.24-6.16,1.15-12,2.22-16.32,3.39-16.49,4.44-23.29,13.14-25.88,17.93a15.1,15.1,0,0,0-2.11,6.8,6.13,6.13,0,0,1,1.05,6.66A5.28,5.28,0,0,1-48.87,88.6Z"/><path class="cls-6" d="M-40.2,121.79a5.27,5.27,0,0,1-4.35-.38c-3.88-2.15-5.82-7.74-5.07-14.58,1.38-12.6,11.4-28,35.38-33.57,3.24-.74,7-1.53,11-2.36,9.91-2.07,21.15-4.42,31.57-7.57C64.42,52.4,79.79,18.5,81.12,12.72A5.52,5.52,0,0,1,88,8.37a6.28,6.28,0,0,1,4.12,7.48C89.38,27.6,70,63.49,31.52,75.13,20.66,78.41,8.68,80.91-.94,82.92c-3.94.82-7.66,1.6-10.78,2.32-16.57,3.82-22.77,12.49-25,17.31-1.91,4.16-1.92,7.55-1.66,8.84A6.53,6.53,0,0,1-37,118.78,5.65,5.65,0,0,1-40.2,121.79Zm.66-11.26h0Z"/><path class="cls-6" d="M-31.54,155a5.6,5.6,0,0,1-4.64-.4c-5.3-3-6.77-11.56-5.88-18.79,1-7.92,6.38-26.94,35.22-32.57C5.45,100.83,20.81,97,34.24,92.9,69.33,82.3,87.75,52.16,89.29,45.42a5.89,5.89,0,0,1,7.29-4.64,6.7,6.7,0,0,1,4.39,8C98.36,60.17,77.89,91.22,42.16,104c-1.48.53-3,1-4.52,1.49-13.77,4.16-29.53,8.12-42.17,10.59-15.71,3.06-21.84,10.61-24.22,16.41-2.14,5.23-1.57,9.74-1,11.23a7,7,0,0,1,1.65,8.05A6,6,0,0,1-31.54,155Zm.7-12h0Z"/></g><g class="cls-5"><path class="cls-6" d="M-34.48,172.7a5.7,5.7,0,0,1-4.16.17,6.16,6.16,0,0,1-4.09-6.67c.77-9.36,18.85-26.6,44.52-37.35,6.78-2.84,16.39-5,26.57-7.37s20.93-4.8,29.71-8.06c26.82-10,46.66-34,55.82-67.53l.07-.24a6.16,6.16,0,0,1,6.58-4.32A4.43,4.43,0,0,1,124.4,47l-.07.25C114.16,84.51,91.66,111.32,61,122.74c-9.55,3.55-20.59,6.08-31.27,8.53C20.07,133.48,11,135.56,5.18,138c-23.76,10-34.83,22.8-36.83,26.92a4.63,4.63,0,0,1,.28,5A6.18,6.18,0,0,1-34.48,172.7Z"/><path class="cls-6" d="M.5,174a3.63,3.63,0,0,1-3-.48c-2.15-1.42-3.19-4.14-2.79-7.3.88-7,9.92-20,30.4-25,4.32-1,10.11-1.56,16.25-2.12,7-.63,14.31-1.29,20.61-2.76,30-7,40-40,41-43.73a3.76,3.76,0,0,1,4.9-2.75,4.59,4.59,0,0,1,2.6,5.51C109.3,99.66,98,136.91,63.76,144.92c-6.78,1.58-14.64,2.29-21.58,2.91-5.87.54-11.41,1-15.22,2C9.91,153.92,3.27,164,2.53,167.24a4.8,4.8,0,0,1,.31,4.82A3.88,3.88,0,0,1,.5,174Z"/><path class="cls-6" d="M1.25,224.42a4.9,4.9,0,0,1-4.06-.35c-3.26-1.81-4.92-6-4.44-11.13.87-9.21,9.37-26.71,35.74-33.81,4.71-1.26,10.72-2.37,17.08-3.55,8.66-1.61,18.48-3.43,27-6,34.08-10.3,48.52-45,50.52-53.73a5.15,5.15,0,0,1,6.37-4.06,5.86,5.86,0,0,1,3.85,7c-2.75,12-18.49,47.88-54.2,60.65-1.17.42-2.35.81-3.57,1.17-9,2.73-19.1,4.6-28,6.25-6.17,1.14-12,2.22-16.33,3.39-16.49,4.43-23.29,13.13-25.87,17.93A15.17,15.17,0,0,0,3.19,215a6.09,6.09,0,0,1,1.05,6.65A5.26,5.26,0,0,1,1.25,224.42Z"/></g></g></g><g id="Layer_2" data-name="Layer 2"><g class="cls-7"><path class="cls-8" d="M60.85,47.56,21.7,47.43l2.11,19.08L63.86,74.8Zm-8.94,5.1a2.11,2.11,0,0,1-2.09-1.79,1.61,1.61,0,0,1,1.7-1.77,2.13,2.13,0,0,1,2.1,1.79A1.62,1.62,0,0,1,51.91,52.66Zm5.21,0A2.12,2.12,0,0,1,55,50.89a1.61,1.61,0,0,1,1.7-1.77,2.13,2.13,0,0,1,2.1,1.78A1.62,1.62,0,0,1,57.12,52.68Z"/><path class="cls-8" d="M34.37,89.44a11.74,11.74,0,0,1-5.2.12,5.13,5.13,0,0,1-2-1.33A4.23,4.23,0,0,1,26,86.06a12,12,0,0,0,2.9,6,14.41,14.41,0,0,0,5.92,3.83A16.43,16.43,0,0,0,41,97h0C33,96.69,33.69,89.57,34.37,89.44Z"/><path class="cls-8" d="M63.86,74.8l-40-8.29,2,18.41A5,5,0,0,0,26,86.06a4.23,4.23,0,0,0,1.21,2.17,5.13,5.13,0,0,0,2,1.33,11.74,11.74,0,0,0,5.2-.12c-.68.13-1.4,7.25,6.6,7.52h.43l24.92.08Z"/></g><path class="cls-9" d="M23.61,42l2.17,20.42,40.08,8.73L62.76,42Zm30.23,5.49a2.18,2.18,0,0,1-2.11-1.9,1.68,1.68,0,0,1,1.7-1.9,2.17,2.17,0,0,1,2.11,1.9A1.68,1.68,0,0,1,53.84,47.51Zm5.21,0a2.16,2.16,0,0,1-2.1-1.9,1.67,1.67,0,0,1,1.69-1.9,2.17,2.17,0,0,1,2.11,1.9A1.68,1.68,0,0,1,59.05,47.51Z"/><path class="cls-9" d="M36.41,87a10.92,10.92,0,0,1-5.19.14,5.09,5.09,0,0,1-2-1.41A4.61,4.61,0,0,1,28,83.36a13.16,13.16,0,0,0,2.92,6.4,14.3,14.3,0,0,0,5.93,4.09A15.36,15.36,0,0,0,43,95h0C35,94.71,35.74,87.09,36.41,87Z"/><path class="cls-9" d="M25.78,62.44l2.09,19.7A7.41,7.41,0,0,0,28,83.36a4.61,4.61,0,0,0,1.22,2.32,5.09,5.09,0,0,0,2,1.41A10.92,10.92,0,0,0,36.41,87c-.67.14-1.37,7.76,6.64,8H68.39l-2.53-23.8Z"/><path class="cls-10" d="M23.61,42l2.17,20.42,40.08,8.73L62.76,42Zm30.23,5.49a2.18,2.18,0,0,1-2.11-1.9,1.68,1.68,0,0,1,1.7-1.9,2.17,2.17,0,0,1,2.11,1.9A1.68,1.68,0,0,1,53.84,47.51Zm5.21,0a2.16,2.16,0,0,1-2.1-1.9,1.67,1.67,0,0,1,1.69-1.9,2.17,2.17,0,0,1,2.11,1.9A1.68,1.68,0,0,1,59.05,47.51Z"/><path class="cls-10" d="M36.41,87a10.92,10.92,0,0,1-5.19.14,5.09,5.09,0,0,1-2-1.41A4.61,4.61,0,0,1,28,83.36a13.16,13.16,0,0,0,2.92,6.4,14.3,14.3,0,0,0,5.93,4.09A15.36,15.36,0,0,0,43,95h0C35,94.71,35.74,87.09,36.41,87Z"/><path class="cls-11" d="M25.78,62.44l2.09,19.7A7.41,7.41,0,0,0,28,83.36a4.61,4.61,0,0,0,1.22,2.32,5.09,5.09,0,0,0,2,1.41A10.92,10.92,0,0,0,36.41,87c-.67.14-1.37,7.76,6.64,8H68.39l-2.53-23.8Z"/></g><g id="Layer_4" data-name="Layer 4"><rect class="cls-12" x="2" y="2.5" width="86" height="134" rx="11.03"/></g></svg>