<svg xmlns="http://www.w3.org/2000/svg" xmlns:xlink="http://www.w3.org/1999/xlink" viewBox="0 0 90 139"><defs><style>.cls-1,.cls-11,.cls-7{fill:none;}.cls-2{fill:#b4a7d3;}.cls-3{clip-path:url(#clip-path);}.cls-4{opacity:0.5;}.cls-5{fill:#d4d2d7;}.cls-6{fill:#333;}.cls-7{stroke:#231f20;stroke-linejoin:round;}.cls-8{fill:#999;}.cls-9{fill:#fff;}.cls-10{fill:#4d4d4d;}.cls-11{stroke:#695d86;stroke-miterlimit:10;stroke-width:3px;}</style><clipPath id="clip-path"><rect class="cls-1" y="0.5" width="90" height="134" rx="9.7"/></clipPath></defs><title>RockRegCard</title><g id="Layer_3" data-name="Layer 3"><rect class="cls-2" x="2" y="1.5" width="87" height="135" rx="11.03"/></g><g id="Layer_1" data-name="Layer 1"><g class="cls-3"><g class="cls-4"><path class="cls-5" d="M30.06,13.64,93.12,79.55,5.32,117.69l24.74-104M24-8.57-10.47,136.55,112,83.35,24-8.57Z"/></g></g></g><g id="Layer_2" data-name="Layer 2"><polygon class="cls-6" points="65 63.14 47.49 48.38 50.75 73.19 43.03 86.94 50.75 73.19 47.49 48.38 25.82 55.95 21.84 78.74 39.35 93.5 39.35 93.5 39.35 93.5 39.35 93.5 39.35 93.5 60.93 85.7 65 63.14"/><polygon class="cls-7" points="27.74 54.8 23.84 77.15 41.01 91.62 52.19 71.7 27.74 54.8"/><polygon class="cls-7" points="48.99 47.38 27.74 54.8 52.19 71.7 48.99 47.38"/><polygon class="cls-7" points="66.16 61.85 62.17 83.97 41.01 91.62 52.19 71.71 48.99 47.38 66.16 61.85"/><polygon class="cls-8" points="27.74 54.8 23.84 77.15 41.01 91.62 52.19 71.7 27.74 54.8"/><polygon class="cls-9" points="48.99 47.38 27.74 54.8 52.19 71.7 48.99 47.38"/><polygon class="cls-10" points="66.16 61.85 62.17 83.97 41.01 91.62 52.19 71.71 48.99 47.38 66.16 61.85"/></g><g id="Layer_4" data-name="Layer 4"><rect class="cls-11" x="2.5" y="2" width="86" height="134" rx="11.03"/></g></svg>