<svg xmlns="http://www.w3.org/2000/svg" xmlns:xlink="http://www.w3.org/1999/xlink" viewBox="0 0 90 139"><defs><style>.cls-1,.cls-11,.cls-7{fill:none;}.cls-2{fill:#ffd65e;}.cls-3{clip-path:url(#clip-path);}.cls-4{opacity:0.5;}.cls-5{fill:#fff6de;}.cls-6{fill:#333;}.cls-7{stroke:#231f20;stroke-linejoin:round;}.cls-8{fill:#999;}.cls-9{fill:#fff;}.cls-10{fill:#4d4d4d;}.cls-11{stroke-miterlimit:10;stroke-width:3px;stroke:url(#Summer);}</style><clipPath id="clip-path"><rect class="cls-1" y="0.5" width="89" height="134" rx="9.7"/></clipPath><radialGradient id="Summer" cx="44.5" cy="69" r="57.76" gradientUnits="userSpaceOnUse"><stop offset="0" stop-color="#fff"/><stop offset="0.09" stop-color="#ffedd8"/><stop offset="0.21" stop-color="#ffd5a7"/><stop offset="0.33" stop-color="#ffc17d"/><stop offset="0.46" stop-color="#ffb05b"/><stop offset="0.59" stop-color="#ffa340"/><stop offset="0.72" stop-color="#ff9a2d"/><stop offset="0.86" stop-color="#ff9522"/><stop offset="1" stop-color="#ff931e"/></radialGradient></defs><title>rock_g</title><g id="Layer_3" data-name="Layer 3"><rect class="cls-2" x="3" y="1.5" width="85" height="135" rx="11.03"/></g><g id="Layer_1" data-name="Layer 1"><g class="cls-3"><g class="cls-4"><path class="cls-5" d="M29.8,13.81,92,79.57l-86.61,38L29.8,13.81m-6-22.38L-10.35,136.55l121.08-53.2-87-91.92Z"/></g></g></g><g id="Layer_2" data-name="Layer 2"><polygon class="cls-6" points="65 63.14 47.49 48.38 50.75 73.19 43.03 86.94 50.75 73.19 47.49 48.38 25.82 55.95 21.84 78.74 39.35 93.5 39.35 93.5 39.35 93.5 39.35 93.5 39.35 93.5 60.93 85.7 65 63.14"/><polygon class="cls-7" points="27.74 54.8 23.84 77.15 41.01 91.62 52.19 71.7 27.74 54.8"/><polygon class="cls-7" points="48.99 47.38 27.74 54.8 52.19 71.7 48.99 47.38"/><polygon class="cls-7" points="66.16 61.85 62.17 83.97 41.01 91.62 52.19 71.71 48.99 47.38 66.16 61.85"/><polygon class="cls-8" points="27.74 54.8 23.84 77.15 41.01 91.62 52.19 71.7 27.74 54.8"/><polygon class="cls-9" points="48.99 47.38 27.74 54.8 52.19 71.7 48.99 47.38"/><polygon class="cls-10" points="66.16 61.85 62.17 83.97 41.01 91.62 52.19 71.71 48.99 47.38 66.16 61.85"/></g><g id="Layer_4" data-name="Layer 4"><rect class="cls-11" x="1.5" y="2" width="86" height="134" rx="11.03"/></g></svg>