<svg xmlns="http://www.w3.org/2000/svg" xmlns:xlink="http://www.w3.org/1999/xlink" viewBox="0 0 90 139"><defs><style>.cls-1{fill:#f2f2f2;}.cls-2{fill:#333;}.cls-3,.cls-7{fill:none;}.cls-3{stroke:#231f20;stroke-linejoin:round;}.cls-4{fill:#fff6de;}.cls-5{fill:#fff;}.cls-6{fill:#ffd65e;}.cls-7{stroke-miterlimit:10;stroke-width:2px;stroke:url(#Summer);}</style><radialGradient id="Summer" cx="45" cy="69.5" r="57.27" gradientUnits="userSpaceOnUse"><stop offset="0" stop-color="#fff"/><stop offset="0.09" stop-color="#ffedd8"/><stop offset="0.21" stop-color="#ffd5a7"/><stop offset="0.33" stop-color="#ffc17d"/><stop offset="0.46" stop-color="#ffb05b"/><stop offset="0.59" stop-color="#ffa340"/><stop offset="0.72" stop-color="#ff9a2d"/><stop offset="0.86" stop-color="#ff9522"/><stop offset="1" stop-color="#ff931e"/></radialGradient></defs><title>rock_d_g</title><g id="Layer_3" data-name="Layer 3"><rect class="cls-1" x="2" y="1.5" width="87" height="135" rx="11.03"/></g><g id="Layer_2" data-name="Layer 2"><polygon class="cls-2" points="65 63.14 47.49 48.38 50.75 73.19 43.03 86.94 50.75 73.19 47.49 48.38 25.82 55.95 21.84 78.74 39.35 93.5 39.35 93.5 39.35 93.5 39.35 93.5 39.35 93.5 60.93 85.7 65 63.14"/><polygon class="cls-3" points="27.74 54.8 23.84 77.15 41.01 91.62 52.19 71.7 27.74 54.8"/><polygon class="cls-3" points="48.99 47.38 27.74 54.8 52.19 71.7 48.99 47.38"/><polygon class="cls-3" points="66.16 61.85 62.17 83.97 41.01 91.62 52.19 71.71 48.99 47.38 66.16 61.85"/><polygon class="cls-4" points="27.74 54.8 23.84 77.15 41.01 91.62 52.19 71.7 27.74 54.8"/><polygon class="cls-5" points="48.99 47.38 27.74 54.8 52.19 71.7 48.99 47.38"/><polygon class="cls-6" points="66.16 61.85 62.17 83.97 41.01 91.62 52.19 71.71 48.99 47.38 66.16 61.85"/></g><g id="Layer_4" data-name="Layer 4"><rect class="cls-7" x="2" y="2.5" width="86" height="134" rx="11.03"/></g></svg>