<svg id="Layer_1" data-name="Layer 1" xmlns="http://www.w3.org/2000/svg" viewBox="0 0 178.79 175.64"><defs><style>.cls-1{fill:#4d4d4d;}.cls-2,.cls-4{fill:#f2f2f2;}.cls-2{stroke:#000;stroke-miterlimit:10;}.cls-2,.cls-9{stroke-width:0.25px;}.cls-3,.cls-6{fill:none;}.cls-3{stroke:#333;stroke-linecap:round;}.cls-3,.cls-6,.cls-9{stroke-linejoin:round;}.cls-5{fill:#ccc;}.cls-6,.cls-9{stroke:#231f20;}.cls-7{fill:#999;}.cls-8{fill:#fff;}.cls-9{fill:#e6e6e6;}</style></defs><title>rule</title><path class="cls-1" d="M60.51,89a12.83,12.83,0,0,0-17,6.29A8.62,8.62,0,0,0,42.71,98l-3.48-1.6L28,76.52a7.1,7.1,0,0,0-9.82-2.09l-.09.06L29.39,91.88l-17.81-8.2,0,.1A7.1,7.1,0,0,0,15,93.2l20.33,7.87,1.41,2.16a9.13,9.13,0,0,0-2.59,1.18,12.83,12.83,0,0,0,14,21.52c5.95-3.85,4.89-8.85,1-14.79a25.26,25.26,0,0,0-4.89-5.77l-.61-1.09,2.23.87a25.4,25.4,0,0,0,6.41,4c6.43,3,11.53,3.29,14.49-3.14A12.83,12.83,0,0,0,60.51,89Zm-15.4,33.37a8.18,8.18,0,0,1-8.89-13.71c3.63-2.35,4.76,1.44,7.22,5.23S48.74,120,45.11,122.36Zm17.72-18.83c-1.81,3.93-4.53,1.45-8.63-.44s-8-2.46-6.21-6.39a8.17,8.17,0,0,1,14.84,6.83Z" transform="translate(-7.64 -52.84)"/><path class="cls-2" d="M61,87.7A12.83,12.83,0,0,0,44,94a9,9,0,0,0-.8,2.73l-3.47-1.6L28.54,75.24a7.11,7.11,0,0,0-9.82-2.1l-.09.06L29.91,90.59,12.1,82.4l0,.09a7.1,7.1,0,0,0,3.49,9.42l20.33,7.87L37.28,102a8.82,8.82,0,0,0-2.59,1.17,12.83,12.83,0,1,0,14,21.52c6-3.85,4.89-8.85,1-14.79a25.26,25.26,0,0,0-4.89-5.77L44.19,103l2.23.86a25.71,25.71,0,0,0,6.41,4c6.43,3,11.53,3.29,14.49-3.15A12.83,12.83,0,0,0,61,87.7Zm-15.4,33.37a8.17,8.17,0,0,1-8.89-13.7c3.63-2.36,4.76,1.44,7.22,5.22S49.26,118.72,45.63,121.07Zm17.72-18.83c-1.81,3.93-4.53,1.45-8.63-.44s-8-2.46-6.21-6.39a8.18,8.18,0,0,1,14.84,6.83Z" transform="translate(-7.64 -52.84)"/><path class="cls-3" d="M71.61,163.66l2.64,24.8,48.68,10.61-3.77-35.41Zm36.71,6.67a2.64,2.64,0,0,1-2.55-2.31,2,2,0,0,1,2.06-2.31,2.63,2.63,0,0,1,2.56,2.31A2,2,0,0,1,108.32,170.33Zm6.33,0A2.63,2.63,0,0,1,112.1,168a2,2,0,0,1,2.06-2.31,2.63,2.63,0,0,1,2.56,2.31A2,2,0,0,1,114.65,170.33Z" transform="translate(-7.64 -52.84)"/><path class="cls-3" d="M87.16,218.22a13,13,0,0,1-6.31.17,6.17,6.17,0,0,1-2.41-1.71A5.53,5.53,0,0,1,77,213.87a15.91,15.91,0,0,0,3.54,7.77,17.26,17.26,0,0,0,7.2,5,18.81,18.81,0,0,0,7.5,1.37h0C85.49,227.65,86.34,218.39,87.16,218.22Z" transform="translate(-7.64 -52.84)"/><path class="cls-3" d="M74.25,188.46l2.54,23.92a6.89,6.89,0,0,0,.18,1.49,5.53,5.53,0,0,0,1.47,2.81,6.17,6.17,0,0,0,2.41,1.71,13,13,0,0,0,6.31-.17c-.82.17-1.67,9.43,8.06,9.74H126l-3.07-28.9Z" transform="translate(-7.64 -52.84)"/><path class="cls-4" d="M71.61,163.66l2.64,24.8,48.68,10.61-3.77-35.41Zm36.71,6.67a2.64,2.64,0,0,1-2.55-2.31,2,2,0,0,1,2.06-2.31,2.63,2.63,0,0,1,2.56,2.31A2,2,0,0,1,108.32,170.33Zm6.33,0A2.63,2.63,0,0,1,112.1,168a2,2,0,0,1,2.06-2.31,2.63,2.63,0,0,1,2.56,2.31A2,2,0,0,1,114.65,170.33Z" transform="translate(-7.64 -52.84)"/><path class="cls-4" d="M87.16,218.22a13,13,0,0,1-6.31.17,6.17,6.17,0,0,1-2.41-1.71A5.53,5.53,0,0,1,77,213.87a15.91,15.91,0,0,0,3.54,7.77,17.26,17.26,0,0,0,7.2,5,18.81,18.81,0,0,0,7.5,1.37h0C85.49,227.65,86.34,218.39,87.16,218.22Z" transform="translate(-7.64 -52.84)"/><path class="cls-5" d="M74.25,188.46l2.54,23.92a6.89,6.89,0,0,0,.18,1.49,5.53,5.53,0,0,0,1.47,2.81,6.17,6.17,0,0,0,2.41,1.71,13,13,0,0,0,6.31-.17c-.82.17-1.67,9.43,8.06,9.74H126l-3.07-28.9Z" transform="translate(-7.64 -52.84)"/><polygon class="cls-6" points="130.75 31.82 126.2 57.89 146.24 74.78 159.27 51.55 130.75 31.82"/><polygon class="cls-6" points="155.54 23.16 130.75 31.82 159.27 51.55 155.54 23.16"/><polygon class="cls-6" points="175.58 40.05 170.92 65.86 146.23 74.78 159.28 51.55 155.54 23.16 175.58 40.05"/><polygon class="cls-7" points="130.75 31.82 126.2 57.89 146.24 74.78 159.27 51.55 130.75 31.82"/><polygon class="cls-8" points="155.54 23.16 130.75 31.82 159.27 51.55 155.54 23.16"/><polygon class="cls-1" points="175.58 40.05 170.92 65.86 146.23 74.78 159.28 51.55 155.54 23.16 175.58 40.05"/><path class="cls-9" d="M97.63,55.41c10.57-.33,31.2,3.9,31.2,3.9s-5.81,4.29-6,7.8c-.12,2.13.76,9.82.76,9.82a74.28,74.28,0,0,0-22.77-12.7c-8.13-2.85-17,.1-17,.1l3.73,4.8-28.1,2.69L75.38,53l4.21,5.69S81.3,55.91,97.63,55.41Z" transform="translate(-7.64 -52.84)"/><path class="cls-9" d="M16.45,167.29C12,157.7,7.77,137.08,7.77,137.08s6.22,3.65,9.53,2.46c2-.72,8.73-4.57,8.73-4.57a74.53,74.53,0,0,0-2.71,25.94c.58,8.59,6.78,15.59,6.78,15.59l2.95-5.32L46.58,196,23,188.71l3.56-6.11S23.35,182.1,16.45,167.29Z" transform="translate(-7.64 -52.84)"/><path class="cls-9" d="M171.28,178.6c-5.93,8.75-21.45,23-21.45,23s-.07-7.22-2.79-9.44c-1.65-1.35-8.4-5.14-8.4-5.14a74.22,74.22,0,0,0,23.63-11c7.08-4.91,9.89-13.83,9.89-13.83l-6.08.21L180.38,138l5.92,24-7.07.08S180.44,165.07,171.28,178.6Z" transform="translate(-7.64 -52.84)"/></svg>