<svg xmlns="http://www.w3.org/2000/svg" xmlns:xlink="http://www.w3.org/1999/xlink" viewBox="0 0 90 139"><defs><style>.cls-1{fill:#4d4d4d;}.cls-2{fill:#ffd65e;}.cls-3{fill:none;stroke-miterlimit:10;stroke-width:2px;stroke:url(#Summer);}</style><radialGradient id="Summer" cx="45" cy="69.5" r="57.27" gradientUnits="userSpaceOnUse"><stop offset="0" stop-color="#fff"/><stop offset="0.09" stop-color="#ffedd8"/><stop offset="0.21" stop-color="#ffd5a7"/><stop offset="0.33" stop-color="#ffc17d"/><stop offset="0.46" stop-color="#ffb05b"/><stop offset="0.59" stop-color="#ffa340"/><stop offset="0.72" stop-color="#ff9a2d"/><stop offset="0.86" stop-color="#ff9522"/><stop offset="1" stop-color="#ff931e"/></radialGradient></defs><title>Scissors_d_g</title><g id="Layer_2" data-name="Layer 2"><path class="cls-1" d="M64.81,59.52a12.35,12.35,0,0,0-16.39,6,8.62,8.62,0,0,0-.77,2.63L44.3,66.66,33.51,47.51a6.85,6.85,0,0,0-9.46-2l-.09.06L34.83,62.3,17.67,54.4l0,.1A6.84,6.84,0,0,0,21,63.57l19.59,7.58,1.35,2.09a8.54,8.54,0,0,0-2.49,1.13A12.36,12.36,0,1,0,52.88,95.1c5.73-3.72,4.71-8.53,1-14.25a24.56,24.56,0,0,0-4.71-5.56l-.59-1,2.15.83a24.35,24.35,0,0,0,6.17,3.86c6.2,2.85,11.11,3.17,14-3A12.36,12.36,0,0,0,64.81,59.52ZM50,91.66a7.88,7.88,0,0,1-8.57-13.2c3.5-2.27,4.59,1.38,7,5S53.47,89.39,50,91.66ZM67,73.52c-1.74,3.79-4.37,1.39-8.32-.42s-7.72-2.37-6-6.16A7.87,7.87,0,0,1,67,73.52Z"/><path class="cls-2" d="M46.67,95.48a12,12,0,0,1-6.53-22,8.25,8.25,0,0,1,2.38-1.08l.5-.13-1.7-2.63L21.62,62a6.47,6.47,0,0,1-3.26-8.32l18,8.28L25,44.42a6.46,6.46,0,0,1,8.71,2L44.54,65.71l3.93,1.81.06-.52a8,8,0,0,1,.73-2.51A12,12,0,1,1,71,74.51c-1.49,3.25-3.56,4.77-6.51,4.77h0a17.39,17.39,0,0,1-7-1.92,24.05,24.05,0,0,1-6.08-3.8l0,0-3.19-1.23,1.14,2,0,0a24,24,0,0,1,4.63,5.47c4.21,6.49,3.95,10.6-.88,13.73A11.9,11.9,0,0,1,46.67,95.48ZM43.86,76.14a4,4,0,0,0-2.16.76A7.72,7.72,0,0,0,38.31,82a8.38,8.38,0,0,0,1.23,6.15A8.28,8.28,0,0,0,46.48,92a7.64,7.64,0,0,0,4.19-1.24,3.61,3.61,0,0,0,1.8-2.23c.26-1.43-.75-2.84-2-4.62C50,83.3,49.59,82.7,49.17,82s-.8-1.29-1.16-1.91C46.76,78,45.67,76.14,43.86,76.14ZM60.15,61a8,8,0,0,0-7.25,4.53,3.55,3.55,0,0,0-.29,2.81c.56,1.41,2.34,2.14,4.4,3,.66.27,1.36.55,2.06.88s1.37.67,2,1a9.92,9.92,0,0,0,4,1.48c1.19,0,2.11-.73,2.8-2.23A7.72,7.72,0,0,0,68,66.33,8.49,8.49,0,0,0,60.15,61Z"/><path d="M28.26,43.9a6.06,6.06,0,0,1,5.09,2.73l10.8,19.16.12.21.22.1,3.35,1.54.94.44.12-1a7.76,7.76,0,0,1,.7-2.4,11.64,11.64,0,0,1,10.55-6.76A11.6,11.6,0,0,1,70.68,74.35c-1.43,3.11-3.39,4.56-6.17,4.56A17,17,0,0,1,57.72,77a23.8,23.8,0,0,1-6-3.74l-.1-.09-.13,0-2.15-.83-2-.76,1,1.83.58,1,.07.12.11.09A23.52,23.52,0,0,1,53.75,80c2,3.06,2.92,5.44,2.92,7.47,0,2.25-1.21,4.12-3.7,5.74A11.6,11.6,0,0,1,40.34,73.76a7.92,7.92,0,0,1,2.27-1l1-.26-.57-.87L41.7,69.5l-.13-.2-.23-.09L21.8,61.65a6.1,6.1,0,0,1-3.23-7.48L35,61.74l2.36,1.08L36,60.65,25.51,44.56a6,6,0,0,1,2.75-.66M65.08,75c1.36,0,2.38-.8,3.14-2.45a8.47,8.47,0,0,0-4.36-11.14,8.84,8.84,0,0,0-3.71-.82,8.33,8.33,0,0,0-7.59,4.76,3.87,3.87,0,0,0-.3,3.1c.62,1.56,2.47,2.31,4.61,3.18.66.27,1.35.55,2,.87s1.35.66,2,1A10,10,0,0,0,65.08,75m-18.6,17.3a8.05,8.05,0,0,0,4.4-1.29,3.89,3.89,0,0,0,1.95-2.49c.3-1.57-.8-3.12-2.08-4.9-.42-.58-.85-1.18-1.26-1.82s-.79-1.28-1.16-1.9c-1.31-2.24-2.44-4.18-4.47-4.18h0a4.38,4.38,0,0,0-2.36.83,8.47,8.47,0,0,0-2.28,11.74,8.67,8.67,0,0,0,7.26,4M28.26,43.15a6.85,6.85,0,0,0-3.71,1.1l-.09.06L35.33,61.06l-17.16-7.9,0,.1a6.84,6.84,0,0,0,3.35,9.07l19.59,7.58L42.42,72a8.85,8.85,0,0,0-2.49,1.14A12.36,12.36,0,0,0,53.38,93.86c5.73-3.72,4.71-8.53,1-14.25a24.56,24.56,0,0,0-4.71-5.56l-.59-1,2.15.83A24.63,24.63,0,0,0,57.4,77.7a17.87,17.87,0,0,0,7.11,2c2.87,0,5.21-1.41,6.86-5A12.36,12.36,0,1,0,48.92,64.33,8.62,8.62,0,0,0,48.15,67L44.8,65.42,34,46.27a6.84,6.84,0,0,0-5.75-3.12ZM65.08,74.29c-1.53,0-3.44-1.32-5.86-2.43-3.94-1.82-7.72-2.37-6-6.16a7.51,7.51,0,0,1,6.9-4.32,8.1,8.1,0,0,1,3.4.75,7.72,7.72,0,0,1,4,10.15c-.68,1.47-1.49,2-2.46,2Zm-18.6,17.3a8,8,0,0,1-6.63-3.66,7.72,7.72,0,0,1,2-10.71,3.79,3.79,0,0,1,2-.71c2.07,0,3.14,2.87,5,5.74,2.36,3.64,5.11,5.9,1.61,8.17a7.35,7.35,0,0,1-4,1.17Z"/></g><g id="Layer_4" data-name="Layer 4"><rect class="cls-3" x="2" y="2.5" width="86" height="134" rx="11.03"/></g></svg>