<svg xmlns="http://www.w3.org/2000/svg" xmlns:xlink="http://www.w3.org/1999/xlink" viewBox="0 0 90 139"><defs><style>.cls-1,.cls-9{fill:none;}.cls-2{fill:#ffd65e;}.cls-3{clip-path:url(#clip-path);}.cls-4{opacity:0.47;}.cls-5{fill:#fff6de;}.cls-6{fill:#4d4d4d;}.cls-7{fill:#fff;}.cls-8{fill:#333;}.cls-9{stroke-miterlimit:10;stroke-width:3px;stroke:url(#Summer);}</style><clipPath id="clip-path"><rect class="cls-1" x="2" y="2.5" width="86" height="134" rx="11.03"/></clipPath><radialGradient id="Summer" cx="45.5" cy="70" r="57.76" gradientUnits="userSpaceOnUse"><stop offset="0" stop-color="#fff"/><stop offset="0.09" stop-color="#ffedd8"/><stop offset="0.21" stop-color="#ffd5a7"/><stop offset="0.33" stop-color="#ffc17d"/><stop offset="0.46" stop-color="#ffb05b"/><stop offset="0.59" stop-color="#ffa340"/><stop offset="0.72" stop-color="#ff9a2d"/><stop offset="0.86" stop-color="#ff9522"/><stop offset="1" stop-color="#ff931e"/></radialGradient></defs><title>scissors_g</title><g id="Layer_1" data-name="Layer 1"><rect class="cls-2" x="2" y="1.5" width="86" height="137" rx="9.7"/></g><g id="Layer_3" data-name="Layer 3"><g class="cls-3"><g class="cls-4"><path class="cls-5" d="M-8.23,9C-13.9,29.38-1.6,50.38,19.24,55.87a27.92,27.92,0,0,0,8.6,1l-3.06,11-54.17,43a20.89,20.89,0,0,0-1.35,29.94l.22.24L16.11,99.07.41,155.59l.32.08a21.78,21.78,0,0,0,26.57-15L40.73,76.93l5.81-5.22a26.44,26.44,0,0,0,4.84,7,39.68,39.68,0,0,0,55.25,2.21,37.74,37.74,0,0,0,2.45-54.1c-14.59-15.55-29.08-9.93-45,4.39-6,5.39-11.34,11.24-14.9,17.28l-2.94,2.34,1.47-7C51.54,38,54.39,30.66,56.53,23,62.2,2.56,60.62-12.6,39.78-18.08S-2.56-11.46-8.23,9ZM99.85,37.53c8.91,9.5,7.91,24.6-2.23,33.72S72,80.07,63.11,70.57,65,55.84,75.19,46.72,90.94,28,99.85,37.53ZM34.32-5.16c12.74,3.35,6.63,12.62,3,25.62S34,45.28,21.24,41.93,1.11,25.32,4.72,12.32,21.59-8.51,34.32-5.16Z"/></g></g></g><g id="Layer_2" data-name="Layer 2"><path class="cls-6" d="M64.81,59.52a12.35,12.35,0,0,0-16.39,6,8.62,8.62,0,0,0-.77,2.63L44.3,66.66,33.51,47.51a6.85,6.85,0,0,0-9.46-2l-.09.06L34.83,62.3,17.67,54.4l0,.1A6.84,6.84,0,0,0,21,63.57l19.59,7.58,1.35,2.09a8.54,8.54,0,0,0-2.49,1.13A12.36,12.36,0,1,0,52.88,95.1c5.73-3.72,4.71-8.53,1-14.25a24.56,24.56,0,0,0-4.71-5.56l-.59-1,2.15.83a24.35,24.35,0,0,0,6.17,3.86c6.2,2.85,11.11,3.17,14-3A12.36,12.36,0,0,0,64.81,59.52ZM50,91.66a7.88,7.88,0,0,1-8.57-13.2c3.5-2.27,4.59,1.38,7,5S53.47,89.39,50,91.66ZM67,73.52c-1.74,3.79-4.37,1.39-8.32-.42s-7.72-2.37-6-6.16A7.87,7.87,0,0,1,67,73.52Z"/><path class="cls-7" d="M46.67,95.6a12.1,12.1,0,0,1-6.6-22.26,8.27,8.27,0,0,1,2.42-1.1l.33-.09L41.23,69.7,21.57,62.1a6.59,6.59,0,0,1-3.27-8.6L36,61.65,24.81,44.38a6.6,6.6,0,0,1,9,2L44.63,65.61l3.73,1.72,0-.34a8.44,8.44,0,0,1,.74-2.55,12.15,12.15,0,0,1,11-7A12,12,0,0,1,65.2,58.5a12.12,12.12,0,0,1,5.94,16.06c-1.5,3.26-3.67,4.85-6.63,4.85h0a17.5,17.5,0,0,1-7-1.94,24,24,0,0,1-6.11-3.82l-2.23-.88-.65-.25.93,1.65a25.38,25.38,0,0,1,4.72,5.57c4.26,6.57,4,10.73-.92,13.91A12.06,12.06,0,0,1,46.67,95.6ZM43.86,76.26a3.9,3.9,0,0,0-2.09.75,7.58,7.58,0,0,0-3.33,5,8.31,8.31,0,0,0,8,9.83,7.63,7.63,0,0,0,4.13-1.21,3.46,3.46,0,0,0,1.73-2.16c.26-1.37-.74-2.76-2-4.52-.41-.57-.85-1.18-1.27-1.84s-.81-1.3-1.17-1.91C46.67,78.09,45.6,76.26,43.86,76.26ZM60.15,61.13A7.83,7.83,0,0,0,53,65.59a3.38,3.38,0,0,0-.29,2.72c.54,1.36,2.29,2.07,4.33,2.9.66.27,1.36.55,2.06.87s1.38.67,2,1a9.88,9.88,0,0,0,4,1.46c1.16,0,2-.68,2.69-2.16a7.6,7.6,0,0,0,.14-6,8.38,8.38,0,0,0-7.76-5.24Z"/><path class="cls-8" d="M28.26,43.65a6.32,6.32,0,0,1,5.31,2.86l10.8,19.16.08.14.15.07,3.34,1.54.63.29.08-.69a8.07,8.07,0,0,1,.72-2.48,11.86,11.86,0,0,1,21.89.85,11.75,11.75,0,0,1-.35,9.07c-1.47,3.2-3.51,4.7-6.4,4.7a17.19,17.19,0,0,1-6.9-1.92,24.28,24.28,0,0,1-6-3.77l-.07-.07-.08,0-2.15-.83L48,72l.68,1.21.59,1,.05.08.07.06A23.5,23.5,0,0,1,54,79.88c2,3.11,3,5.53,3,7.61,0,2.34-1.24,4.28-3.81,6A11.86,11.86,0,0,1,40.2,73.55a7.92,7.92,0,0,1,2.35-1.07l.67-.18-.38-.58-1.35-2.08-.09-.14-.15-.06L21.69,61.88a6.36,6.36,0,0,1-3.26-8.05l16.69,7.68,1.57.73-.94-1.45L25.16,44.47a6.25,6.25,0,0,1,3.1-.82M65.08,74.79c1.25,0,2.2-.75,2.92-2.3a8.23,8.23,0,0,0-4.24-10.81,8.55,8.55,0,0,0-3.61-.8,8.08,8.08,0,0,0-7.36,4.61,3.67,3.67,0,0,0-.3,2.91c.58,1.46,2.39,2.19,4.47,3,.67.27,1.36.55,2.06.87s1.35.66,2,1a9.89,9.89,0,0,0,4.07,1.49m-18.6,17.3a7.8,7.8,0,0,0,4.26-1.25,3.69,3.69,0,0,0,1.85-2.32c.28-1.48-.75-2.91-2.05-4.72-.41-.58-.84-1.18-1.26-1.82s-.8-1.29-1.16-1.91C46.84,77.89,45.74,76,43.86,76h0a4.2,4.2,0,0,0-2.23.79,8.23,8.23,0,0,0-2.2,11.4,8.41,8.41,0,0,0,7,3.89M28.26,43.15a6.85,6.85,0,0,0-3.71,1.1l-.09.06L35.33,61.06l-17.16-7.9,0,.1a6.84,6.84,0,0,0,3.35,9.07l19.59,7.58L42.42,72a8.85,8.85,0,0,0-2.49,1.14A12.36,12.36,0,0,0,53.38,93.86c5.73-3.72,4.71-8.53,1-14.25a24.56,24.56,0,0,0-4.71-5.56l-.59-1,2.15.83A24.63,24.63,0,0,0,57.4,77.7a17.87,17.87,0,0,0,7.11,2c2.87,0,5.21-1.41,6.86-5A12.36,12.36,0,1,0,48.92,64.33,8.62,8.62,0,0,0,48.15,67L44.8,65.42,34,46.27a6.84,6.84,0,0,0-5.75-3.12ZM65.08,74.29c-1.53,0-3.44-1.32-5.86-2.43-3.94-1.82-7.72-2.37-6-6.16a7.51,7.51,0,0,1,6.9-4.32,8.1,8.1,0,0,1,3.4.75,7.72,7.72,0,0,1,4,10.15c-.68,1.47-1.49,2-2.46,2Zm-18.6,17.3a8,8,0,0,1-6.63-3.66,7.72,7.72,0,0,1,2-10.71,3.79,3.79,0,0,1,2-.71c2.07,0,3.14,2.87,5,5.74,2.36,3.64,5.11,5.9,1.61,8.17a7.35,7.35,0,0,1-4,1.17Z"/></g><g id="Layer_4" data-name="Layer 4"><rect class="cls-9" x="2.5" y="3" width="86" height="134" rx="11.03"/></g></svg>